<mxfile host="app.diagrams.net" modified="2022-06-10T17:38:02.049Z" agent="5.0 (Windows NT 10.0; Win64; x64) AppleWebKit/537.36 (KHTML, like Gecko) Chrome/102.0.5005.63 Safari/537.36 Edg/102.0.1245.39" etag="D2fH1w_F9IFZcYpmAz7G" version="19.0.3" type="github">
  <diagram id="ttRA0r8xHftQW6FWzybE" name="Page-1">
    <mxGraphModel dx="2462" dy="2035" grid="1" gridSize="10" guides="1" tooltips="1" connect="1" arrows="1" fold="1" page="1" pageScale="1" pageWidth="827" pageHeight="1169" math="0" shadow="0">
      <root>
        <mxCell id="0" />
        <mxCell id="1" parent="0" />
        <mxCell id="ANAi61JRtlT707SHg6hz-2" value="" style="ellipse;whiteSpace=wrap;html=1;rotation=0;fillColor=#fff2cc;strokeColor=#d6b656;" vertex="1" parent="1">
          <mxGeometry x="-173.11" y="159.22" width="1490" height="760.21" as="geometry" />
        </mxCell>
        <mxCell id="ANAi61JRtlT707SHg6hz-3" value="" style="ellipse;whiteSpace=wrap;html=1;fillColor=#e1d5e7;strokeColor=#9673a6;" vertex="1" parent="1">
          <mxGeometry x="-138.11" y="190" width="1420" height="700" as="geometry" />
        </mxCell>
        <mxCell id="ANAi61JRtlT707SHg6hz-5" value="" style="rounded=0;whiteSpace=wrap;html=1;rotation=-90;fillColor=#d5e8d4;strokeColor=#82b366;" vertex="1" parent="1">
          <mxGeometry x="40" y="440" width="60" height="20" as="geometry" />
        </mxCell>
        <mxCell id="ANAi61JRtlT707SHg6hz-6" value="" style="rounded=0;whiteSpace=wrap;html=1;rotation=-90;fillColor=#d5e8d4;strokeColor=#82b366;" vertex="1" parent="1">
          <mxGeometry x="80" y="440" width="60" height="20" as="geometry" />
        </mxCell>
        <mxCell id="ANAi61JRtlT707SHg6hz-7" value="" style="rounded=0;whiteSpace=wrap;html=1;rotation=-90;fillColor=#d5e8d4;strokeColor=#82b366;" vertex="1" parent="1">
          <mxGeometry x="40" y="520" width="60" height="20" as="geometry" />
        </mxCell>
        <mxCell id="ANAi61JRtlT707SHg6hz-8" value="" style="rounded=0;whiteSpace=wrap;html=1;rotation=-90;fillColor=#d5e8d4;strokeColor=#82b366;" vertex="1" parent="1">
          <mxGeometry x="80" y="520" width="60" height="20" as="geometry" />
        </mxCell>
        <mxCell id="ANAi61JRtlT707SHg6hz-11" value="" style="verticalLabelPosition=bottom;verticalAlign=top;html=1;shape=mxgraph.basic.x;fontStyle=0;fillColor=#e51400;strokeColor=#B20000;fontColor=#ffffff;" vertex="1" parent="1">
          <mxGeometry x="130" y="477.5" width="20" height="25" as="geometry" />
        </mxCell>
        <mxCell id="ANAi61JRtlT707SHg6hz-13" value="name" style="endArrow=block;endFill=1;html=1;edgeStyle=orthogonalEdgeStyle;align=left;verticalAlign=top;rounded=0;exitX=0.75;exitY=0;exitDx=0;exitDy=0;entryX=0.515;entryY=0.971;entryDx=0;entryDy=0;entryPerimeter=0;" edge="1" parent="1" source="ANAi61JRtlT707SHg6hz-34" target="ANAi61JRtlT707SHg6hz-38">
          <mxGeometry x="1" y="1011" relative="1" as="geometry">
            <mxPoint x="330" y="477.5" as="sourcePoint" />
            <mxPoint x="260" y="150" as="targetPoint" />
            <mxPoint x="91" y="-420" as="offset" />
          </mxGeometry>
        </mxCell>
        <mxCell id="ANAi61JRtlT707SHg6hz-14" value="1" style="edgeLabel;resizable=0;html=1;align=left;verticalAlign=bottom;" connectable="0" vertex="1" parent="ANAi61JRtlT707SHg6hz-13">
          <mxGeometry x="-1" relative="1" as="geometry" />
        </mxCell>
        <mxCell id="ANAi61JRtlT707SHg6hz-19" value="" style="shape=cylinder3;whiteSpace=wrap;html=1;boundedLbl=1;backgroundOutline=1;size=15;fillColor=#f5f5f5;fontColor=#333333;strokeColor=#666666;" vertex="1" parent="1">
          <mxGeometry x="870" y="-40" width="60" height="80" as="geometry" />
        </mxCell>
        <mxCell id="ANAi61JRtlT707SHg6hz-20" value="" style="endArrow=classic;startArrow=classic;html=1;rounded=0;" edge="1" parent="1">
          <mxGeometry width="50" height="50" relative="1" as="geometry">
            <mxPoint x="500" y="20" as="sourcePoint" />
            <mxPoint x="850" y="20" as="targetPoint" />
            <Array as="points">
              <mxPoint x="700" y="20" />
            </Array>
          </mxGeometry>
        </mxCell>
        <mxCell id="ANAi61JRtlT707SHg6hz-21" value="PI Server" style="text;html=1;resizable=0;autosize=1;align=center;verticalAlign=middle;points=[];fillColor=none;strokeColor=none;rounded=0;fontStyle=5" vertex="1" parent="1">
          <mxGeometry x="865" y="50" width="70" height="20" as="geometry" />
        </mxCell>
        <mxCell id="ANAi61JRtlT707SHg6hz-23" value="" style="rounded=1;whiteSpace=wrap;html=1;fillColor=#ffe6cc;strokeColor=#d79b00;" vertex="1" parent="1">
          <mxGeometry x="860" y="436.25" width="120" height="60" as="geometry" />
        </mxCell>
        <mxCell id="ANAi61JRtlT707SHg6hz-24" value="+" style="endArrow=classic;startArrow=classic;html=1;rounded=0;" edge="1" parent="1" source="ANAi61JRtlT707SHg6hz-21" target="ANAi61JRtlT707SHg6hz-23">
          <mxGeometry width="50" height="50" relative="1" as="geometry">
            <mxPoint x="970" as="sourcePoint" />
            <mxPoint x="1260" as="targetPoint" />
          </mxGeometry>
        </mxCell>
        <mxCell id="ANAi61JRtlT707SHg6hz-25" value="Dashboard" style="text;html=1;resizable=0;autosize=1;align=center;verticalAlign=middle;points=[];fillColor=none;strokeColor=none;rounded=0;fontStyle=5" vertex="1" parent="1">
          <mxGeometry x="880" y="456.25" width="80" height="20" as="geometry" />
        </mxCell>
        <mxCell id="ANAi61JRtlT707SHg6hz-30" value="" style="rounded=0;whiteSpace=wrap;html=1;" vertex="1" parent="1">
          <mxGeometry x="750" y="650" width="120" height="60" as="geometry" />
        </mxCell>
        <mxCell id="ANAi61JRtlT707SHg6hz-31" value="&lt;b&gt;Smart LAB&lt;/b&gt;" style="text;html=1;resizable=0;autosize=1;align=center;verticalAlign=middle;points=[];fillColor=none;strokeColor=none;rounded=0;" vertex="1" parent="1">
          <mxGeometry x="770" y="670" width="80" height="20" as="geometry" />
        </mxCell>
        <mxCell id="ANAi61JRtlT707SHg6hz-34" value="" style="rounded=1;whiteSpace=wrap;html=1;" vertex="1" parent="1">
          <mxGeometry x="160" y="470" width="120" height="32.5" as="geometry" />
        </mxCell>
        <mxCell id="ANAi61JRtlT707SHg6hz-35" value="&lt;b&gt;Estacao Principal&lt;/b&gt;" style="text;html=1;resizable=0;autosize=1;align=center;verticalAlign=middle;points=[];fillColor=none;strokeColor=none;rounded=0;" vertex="1" parent="1">
          <mxGeometry x="160" y="476.25" width="120" height="20" as="geometry" />
        </mxCell>
        <mxCell id="ANAi61JRtlT707SHg6hz-38" value="" style="ellipse;shape=cloud;whiteSpace=wrap;html=1;fillColor=#dae8fc;strokeColor=#6c8ebf;" vertex="1" parent="1">
          <mxGeometry x="10" y="-70" width="480" height="200" as="geometry" />
        </mxCell>
        <mxCell id="ANAi61JRtlT707SHg6hz-39" value="&lt;b&gt;LoraWAN&lt;/b&gt;" style="text;html=1;resizable=0;autosize=1;align=center;verticalAlign=middle;points=[];fillColor=none;strokeColor=none;rounded=0;" vertex="1" parent="1">
          <mxGeometry x="215" y="20" width="70" height="20" as="geometry" />
        </mxCell>
      </root>
    </mxGraphModel>
  </diagram>
</mxfile>
